<svg version="1.1" id="Layer_1" xmlns="http://www.w3.org/2000/svg" xmlns:xlink="http://www.w3.org/1999/xlink" x="0px" y="0px"
	 width="100%" viewBox="0 0 500 500" enable-background="new 0 0 500 500" xml:space="preserve">
<path fill="#FFFFFF" opacity="1.000000" stroke="none" 
	d="
M219.000000,501.000000 
	C146.000015,501.000000 73.500038,501.000000 1.000039,501.000000 
	C1.000026,334.333405 1.000026,167.666779 1.000013,1.000128 
	C167.666565,1.000086 334.333130,1.000086 500.999756,1.000043 
	C500.999847,167.666534 500.999847,334.333069 500.999939,500.999817 
	C407.166656,501.000000 313.333344,501.000000 219.000000,501.000000 
M234.948318,257.641327 
	C234.948318,274.926453 234.948318,292.211578 234.948318,309.714111 
	C274.594818,309.714111 313.646881,309.714111 352.920013,309.714111 
	C352.982544,308.471252 353.073975,307.502075 353.073822,306.532898 
	C353.069702,277.202820 353.591156,247.859695 352.876862,218.546738 
	C352.297424,194.768326 340.503998,176.821548 319.436890,166.109619 
	C286.245972,149.233109 246.735474,168.435760 236.994263,205.444046 
	C236.502411,207.312653 235.782684,209.121292 235.031113,210.034958 
	C235.031113,193.451904 235.031113,176.868866 235.031113,160.293732 
	C195.354721,160.293732 156.317368,160.293732 117.100273,160.293732 
	C117.046288,161.384796 116.971420,162.191925 116.971474,162.999039 
	C116.973503,192.803299 116.953651,222.607620 117.035164,252.411682 
	C117.043289,255.381454 117.382111,258.418243 118.062019,261.307556 
	C123.663864,285.113220 137.594925,301.711823 161.542755,307.950562 
	C185.662109,314.233948 205.680389,306.350647 221.549744,287.366425 
	C229.030441,278.417358 232.539185,267.795593 234.948318,257.641327 
z"/>
<path fill="#0A66C2" opacity="1.000000" stroke="none" 
	d="
M234.874573,256.640808 
	C232.539185,267.795593 229.030441,278.417358 221.549744,287.366425 
	C205.680389,306.350647 185.662109,314.233948 161.542755,307.950562 
	C137.594925,301.711823 123.663864,285.113220 118.062019,261.307556 
	C117.382111,258.418243 117.043289,255.381454 117.035164,252.411682 
	C116.953651,222.607620 116.973503,192.803299 116.971474,162.999039 
	C116.971420,162.191925 117.046288,161.384796 117.100273,160.293732 
	C156.317368,160.293732 195.354721,160.293732 235.031113,160.293732 
	C235.031113,176.868866 235.031113,193.451904 235.026703,210.962799 
	C234.973053,226.807358 234.923813,241.724075 234.874573,256.640808 
z"/>
<path fill="#F59E0B" opacity="1.000000" stroke="none" 
	d="
M234.911438,257.141052 
	C234.923813,241.724075 234.973053,226.807358 235.095673,211.424240 
	C235.782684,209.121292 236.502411,207.312653 236.994263,205.444046 
	C246.735474,168.435760 286.245972,149.233109 319.436890,166.109619 
	C340.503998,176.821548 352.297424,194.768326 352.876862,218.546738 
	C353.591156,247.859695 353.069702,277.202820 353.073822,306.532898 
	C353.073975,307.502075 352.982544,308.471252 352.920013,309.714111 
	C313.646881,309.714111 274.594818,309.714111 234.948318,309.714111 
	C234.948318,292.211578 234.948318,274.926453 234.911438,257.141052 
z"/>
</svg>