<svg xmlns="http://www.w3.org/2000/svg" width="500" height="500" viewBox="0 0 500 500">
<g>
<path d="M 235.86 208.25 C234.29,219.52 232.96,253.75 234.18,256.80 C234.33,257.18 234.48,259.33 234.60,262.66 C234.20,254.26 233.42,254.31 232.01,260.97 C229.66,272.03 223.89,282.35 215.21,291.03 C202.95,303.28 191.45,308.01 174.04,307.99 C166.16,307.98 163.08,307.48 156.32,305.13 C141.26,299.88 129.67,289.37 122.56,274.50 C116.57,261.95 116.50,261.21 116.50,208.00 L 116.50 159.50 L 174.68 159.24 L 232.86 158.98 L 233.54 161.13 C233.92,162.31 233.90,172.16 233.50,183.02 C233.10,193.88 233.13,205.63 233.55,209.13 L 234.33 215.50 L 235.59 209.50 C235.67,209.08 235.76,208.67 235.86,208.25 ZM 261.21 169.83 C258.44,171.83 255.73,174.16 253.01,176.85 C248.20,181.62 244.46,186.59 241.53,192.17 C244.89,185.60 249.35,179.85 255.07,174.67 C257.02,172.90 259.07,171.28 261.21,169.83 ZM 304.06 160.85 C300.94,160.28 297.74,160.00 294.44,160.00 C289.85,160.00 285.63,160.34 281.69,161.06 C289.06,159.50 296.68,159.41 304.06,160.85 ZM 344.59 191.93 C342.84,188.54 340.86,185.48 338.54,182.57 C340.08,184.43 341.42,186.27 342.49,188.01 C343.11,189.03 343.84,190.40 344.59,191.93 ZM 323.55 168.83 C322.64,168.23 321.73,167.65 320.81,167.11 C321.04,167.25 321.27,167.38 321.50,167.52 C322.17,167.92 322.86,168.36 323.55,168.83 Z" fill="rgba(16,42,71,1)"/>
<path d="M 235.42 308.08 C235.19,307.85 234.97,296.60 234.93,283.08 C234.89,269.56 234.55,257.74 234.18,256.80 C232.83,253.42 234.60,211.86 236.36,205.50 C239.59,193.90 244.70,185.09 253.01,176.85 C265.10,164.87 277.07,160.00 294.44,160.00 C309.01,160.00 321.80,165.53 333.31,176.81 C340.50,183.85 345.02,191.13 348.64,201.51 L 351.44 209.50 L 351.47 258.92 L 351.50 308.35 L 293.67 308.42 C261.86,308.47 235.65,308.31 235.42,308.08 Z" fill="rgba(138,108,253,1)"/>
</g>
</svg>